<?xml version="1.0" standalone="no"?>
<!DOCTYPE svg PUBLIC "-//W3C//DTD SVG 20010904//EN"
 "http://www.w3.org/TR/2001/REC-SVG-20010904/DTD/svg10.dtd">
<svg version="1.0" xmlns="http://www.w3.org/2000/svg"
 width="500.000000pt" height="500.000000pt" viewBox="0 0 500.000000 500.000000"
 preserveAspectRatio="xMidYMid meet">
<metadata>
Created by potrace 1.14, written by Peter Selinger 2001-2017
</metadata>
<g transform="translate(0.000000,500.000000) scale(0.100000,-0.100000)"
fill="#000000" stroke="none">
<path d="M3290 4262 c-37 -13 -70 -45 -70 -68 l0 -24 -122 -1 c-68 -1 -136 -2
-153 -4 -524 -44 -1140 -365 -1330 -694 -121 -209 -223 -486 -321 -871 -30
-118 -56 -226 -57 -239 -2 -25 5 -20 -476 -375 -623 -461 -600 -441 -642 -563
-34 -98 -23 -169 31 -202 70 -42 171 3 449 202 l125 88 45 -17 c124 -46 325
-137 651 -297 614 -300 698 -340 855 -405 238 -97 341 -104 575 -36 39 11 179
87 240 130 85 59 210 165 211 178 0 6 116 107 257 223 141 117 273 226 292
243 24 20 42 28 60 25 14 -2 48 -7 75 -11 28 -3 58 -8 67 -10 137 -24 636 -23
701 2 13 4 30 83 53 238 3 21 8 48 10 60 2 11 6 41 9 66 3 25 8 56 10 70 3 14
7 47 11 75 3 27 8 61 10 75 1 14 6 52 9 85 4 33 8 71 11 85 17 104 24 496 11
581 -16 105 -73 239 -150 354 -158 237 -411 487 -632 626 -103 65 -120 74
-235 129 -58 28 -112 54 -120 58 -8 4 -40 16 -71 27 -57 18 -57 18 -52 54 4
30 0 41 -24 65 -50 52 -128 81 -218 82 -44 1 -87 -1 -95 -4z"/>
</g>
</svg>
